<svg width="21" height="20" viewBox="0 0 21 20" fill="none" xmlns="http://www.w3.org/2000/svg">
<path d="M18.4784 1.2625C18.2562 0.525 17.634 0 16.9007 0H4.67844C3.94511 0 3.334 0.525 3.10066 1.2625L0.789551 8.75V18.75C0.789551 19.4375 1.28955 20 1.90066 20H3.01177C3.62288 20 4.12288 19.4375 4.12288 18.75V17.5H17.4562V18.75C17.4562 19.4375 17.9562 20 18.5673 20H19.6784C20.2896 20 20.7896 19.4375 20.7896 18.75V8.75L18.4784 1.2625ZM4.67844 13.75C3.75622 13.75 3.01177 12.9125 3.01177 11.875C3.01177 10.8375 3.75622 10 4.67844 10C5.60066 10 6.34511 10.8375 6.34511 11.875C6.34511 12.9125 5.60066 13.75 4.67844 13.75ZM16.9007 13.75C15.9784 13.75 15.234 12.9125 15.234 11.875C15.234 10.8375 15.9784 10 16.9007 10C17.8229 10 18.5673 10.8375 18.5673 11.875C18.5673 12.9125 17.8229 13.75 16.9007 13.75ZM3.01177 7.5L4.67844 1.875H16.9007L18.5673 7.5H3.01177Z" fill="black"/>
</svg>
