<svg width="21" height="20" viewBox="0 0 21 20" fill="none" xmlns="http://www.w3.org/2000/svg">
<path d="M18.5002 17.5V15.8333C18.5002 14.2801 17.4379 12.9751 16.0002 12.605M13.0835 2.7423C14.3051 3.23679 15.1668 4.43443 15.1668 5.83333C15.1668 7.23224 14.3051 8.42988 13.0835 8.92437M14.3335 17.5C14.3335 15.9469 14.3335 15.1703 14.0798 14.5577C13.7414 13.741 13.0925 13.092 12.2758 12.7537C11.6632 12.5 10.8866 12.5 9.3335 12.5H6.8335C5.28036 12.5 4.50379 12.5 3.89122 12.7537C3.07446 13.092 2.42554 13.741 2.08723 14.5577C1.8335 15.1703 1.8335 15.9469 1.8335 17.5M11.4168 5.83333C11.4168 7.67428 9.92445 9.16667 8.0835 9.16667C6.24255 9.16667 4.75016 7.67428 4.75016 5.83333C4.75016 3.99238 6.24255 2.5 8.0835 2.5C9.92445 2.5 11.4168 3.99238 11.4168 5.83333Z" stroke="black" stroke-width="1.5" stroke-linecap="round" stroke-linejoin="round"/>
</svg>
